<?xml version="1.0" encoding="UTF-8"?><svg xmlns="http://www.w3.org/2000/svg" xmlns:xlink="http://www.w3.org/1999/xlink" fill-opacity="1" color-rendering="auto" color-interpolation="auto" text-rendering="auto" stroke="black" stroke-linecap="square" width="516" stroke-miterlimit="10" shape-rendering="auto" stroke-opacity="1" fill="black" stroke-dasharray="none" font-weight="normal" stroke-width="1" height="496" font-family="'Dialog'" font-style="normal" stroke-linejoin="miter" font-size="12px" stroke-dashoffset="0" image-rendering="auto">
  <!--Generated by ySVG 2.5-->
  <defs id="genericDefs"/>
  <g>
    <defs id="defs1">
      <clipPath clipPathUnits="userSpaceOnUse" id="clipPath1">
        <path d="M0 0 L516 0 L516 496 L0 496 L0 0 Z"/>
      </clipPath>
      <clipPath clipPathUnits="userSpaceOnUse" id="clipPath2">
        <path d="M158 -144 L674 -144 L674 352 L158 352 L158 -144 Z"/>
      </clipPath>
    </defs>
    <g fill="white" text-rendering="geometricPrecision" shape-rendering="geometricPrecision" transform="translate(-158,144)" stroke="white">
      <rect x="158" width="516" height="496" y="-144" clip-path="url(#clipPath2)" stroke="none"/>
    </g>
    <g fill="rgb(245,245,245)" text-rendering="geometricPrecision" shape-rendering="geometricPrecision" transform="matrix(1,0,0,1,-158,144)" stroke="rgb(245,245,245)">
      <rect x="383.8457" y="-128.5" clip-path="url(#clipPath2)" width="274.6543" rx="4" ry="4" height="193.5" stroke="none"/>
      <rect x="383.8457" y="-128.5" clip-path="url(#clipPath2)" fill="rgb(235,235,235)" width="274.6543" height="22.3765" stroke="none"/>
    </g>
    <g font-size="15px" stroke-linecap="butt" transform="matrix(1,0,0,1,-158,144)" text-rendering="geometricPrecision" font-family="sans-serif" shape-rendering="geometricPrecision" stroke-miterlimit="1.45">
      <text x="588.1357" xml:space="preserve" y="-111.4194" clip-path="url(#clipPath2)" stroke="none">Document</text>
      <rect x="383.8457" y="-128.5" clip-path="url(#clipPath2)" fill="none" width="274.6543" stroke-dasharray="6,2" rx="4" ry="4" height="193.5"/>
    </g>
    <g fill="rgb(255,204,0)" text-rendering="geometricPrecision" shape-rendering="geometricPrecision" transform="matrix(1,0,0,1,-158,144)" stroke="rgb(255,204,0)">
      <rect x="388.8457" y="-101.1235" clip-path="url(#clipPath2)" width="123" rx="4" ry="4" height="30" stroke="none"/>
    </g>
    <g text-rendering="geometricPrecision" stroke-miterlimit="1.45" shape-rendering="geometricPrecision" transform="matrix(1,0,0,1,-158,144)" stroke-linecap="butt">
      <rect x="388.8457" y="-101.1235" clip-path="url(#clipPath2)" fill="none" width="123" rx="4" ry="4" height="30"/>
      <text x="404.6572" xml:space="preserve" y="-81.4097" clip-path="url(#clipPath2)" font-family="sans-serif" stroke="none">Champ 1 : valeur</text>
    </g>
    <g fill="rgb(255,204,0)" text-rendering="geometricPrecision" shape-rendering="geometricPrecision" transform="matrix(1,0,0,1,-158,144)" stroke="rgb(255,204,0)">
      <rect x="530.5" y="-64.1235" clip-path="url(#clipPath2)" width="123" rx="4" ry="4" height="30" stroke="none"/>
    </g>
    <g text-rendering="geometricPrecision" stroke-miterlimit="1.45" shape-rendering="geometricPrecision" transform="matrix(1,0,0,1,-158,144)" stroke-linecap="butt">
      <rect x="530.5" y="-64.1235" clip-path="url(#clipPath2)" fill="none" width="123" rx="4" ry="4" height="30"/>
      <text x="546.3115" xml:space="preserve" y="-44.4097" clip-path="url(#clipPath2)" font-family="sans-serif" stroke="none">Champ 2 : valeur</text>
    </g>
    <g fill="rgb(255,204,0)" text-rendering="geometricPrecision" shape-rendering="geometricPrecision" transform="matrix(1,0,0,1,-158,144)" stroke="rgb(255,204,0)">
      <rect x="530.5" y="-23.5" clip-path="url(#clipPath2)" width="123" rx="4" ry="4" height="30" stroke="none"/>
    </g>
    <g text-rendering="geometricPrecision" stroke-miterlimit="1.45" shape-rendering="geometricPrecision" transform="matrix(1,0,0,1,-158,144)" stroke-linecap="butt">
      <rect x="530.5" y="-23.5" clip-path="url(#clipPath2)" fill="none" width="123" rx="4" ry="4" height="30"/>
      <text x="546.3115" xml:space="preserve" y="-3.7861" clip-path="url(#clipPath2)" font-family="sans-serif" stroke="none">Champ 3 : valeur</text>
    </g>
    <g fill="rgb(255,204,0)" text-rendering="geometricPrecision" shape-rendering="geometricPrecision" transform="matrix(1,0,0,1,-158,144)" stroke="rgb(255,204,0)">
      <rect x="388.8457" y="30" clip-path="url(#clipPath2)" width="123" rx="4" ry="4" height="30" stroke="none"/>
    </g>
    <g text-rendering="geometricPrecision" stroke-miterlimit="1.45" shape-rendering="geometricPrecision" transform="matrix(1,0,0,1,-158,144)" stroke-linecap="butt">
      <rect x="388.8457" y="30" clip-path="url(#clipPath2)" fill="none" width="123" rx="4" ry="4" height="30"/>
      <text x="404.6572" xml:space="preserve" y="49.7139" clip-path="url(#clipPath2)" font-family="sans-serif" stroke="none">Champ 4 : valeur</text>
    </g>
    <g fill="rgb(255,204,0)" text-rendering="geometricPrecision" shape-rendering="geometricPrecision" transform="matrix(1,0,0,1,-158,144)" stroke="rgb(255,204,0)">
      <rect x="173.5" y="-46.75" clip-path="url(#clipPath2)" width="130" rx="4" ry="4" height="30" stroke="none"/>
    </g>
    <g text-rendering="geometricPrecision" stroke-miterlimit="1.45" shape-rendering="geometricPrecision" transform="matrix(1,0,0,1,-158,144)" stroke-linecap="butt">
      <rect x="173.5" y="-46.75" clip-path="url(#clipPath2)" fill="none" width="130" rx="4" ry="4" height="30"/>
      <text x="224.4932" xml:space="preserve" y="-27.0361" clip-path="url(#clipPath2)" font-family="sans-serif" stroke="none">Clé 1</text>
      <path fill="none" d="M450.3457 -71.1284 L450.3457 -49.1235 L522.4758 -49.1235" clip-path="url(#clipPath2)"/>
      <path d="M530.4758 -49.1235 L518.4758 -54.1235 L521.4758 -49.1235 L518.4758 -44.1235 Z" clip-path="url(#clipPath2)" stroke="none"/>
      <path fill="none" d="M450.3457 -71.1522 L450.3457 -8.5 L522.4758 -8.5" clip-path="url(#clipPath2)"/>
      <path d="M530.4758 -8.5 L518.4758 -13.5 L521.4758 -8.5 L518.4758 -3.5 Z" clip-path="url(#clipPath2)" stroke="none"/>
      <path fill="none" d="M303.4747 -31.75 L375.8625 -31.75" clip-path="url(#clipPath2)"/>
      <path d="M383.8625 -31.75 L371.8625 -36.75 L374.8625 -31.75 L371.8625 -26.75 Z" clip-path="url(#clipPath2)" stroke="none"/>
    </g>
    <g fill="rgb(245,245,245)" text-rendering="geometricPrecision" shape-rendering="geometricPrecision" transform="matrix(1,0,0,1,-158,144)" stroke="rgb(245,245,245)">
      <rect x="383.8457" y="104" clip-path="url(#clipPath2)" width="274.6543" rx="4" ry="4" height="232.7529" stroke="none"/>
      <rect x="383.8457" y="104" clip-path="url(#clipPath2)" fill="rgb(235,235,235)" width="274.6543" height="22.3765" stroke="none"/>
    </g>
    <g font-size="15px" stroke-linecap="butt" transform="matrix(1,0,0,1,-158,144)" text-rendering="geometricPrecision" font-family="sans-serif" shape-rendering="geometricPrecision" stroke-miterlimit="1.45">
      <text x="588.1357" xml:space="preserve" y="121.0806" clip-path="url(#clipPath2)" stroke="none">Document</text>
      <rect x="383.8457" y="104" clip-path="url(#clipPath2)" fill="none" width="274.6543" stroke-dasharray="6,2" rx="4" ry="4" height="232.7529"/>
    </g>
    <g fill="rgb(255,204,0)" text-rendering="geometricPrecision" shape-rendering="geometricPrecision" transform="matrix(1,0,0,1,-158,144)" stroke="rgb(255,204,0)">
      <rect x="388.8457" y="131.3765" clip-path="url(#clipPath2)" width="123" rx="4" ry="4" height="30" stroke="none"/>
    </g>
    <g text-rendering="geometricPrecision" stroke-miterlimit="1.45" shape-rendering="geometricPrecision" transform="matrix(1,0,0,1,-158,144)" stroke-linecap="butt">
      <rect x="388.8457" y="131.3765" clip-path="url(#clipPath2)" fill="none" width="123" rx="4" ry="4" height="30"/>
      <text x="404.6572" xml:space="preserve" y="151.0903" clip-path="url(#clipPath2)" font-family="sans-serif" stroke="none">Champ 1 : valeur</text>
    </g>
    <g fill="rgb(255,204,0)" text-rendering="geometricPrecision" shape-rendering="geometricPrecision" transform="matrix(1,0,0,1,-158,144)" stroke="rgb(255,204,0)">
      <rect x="530.5" y="168.3765" clip-path="url(#clipPath2)" width="123" rx="4" ry="4" height="30" stroke="none"/>
    </g>
    <g text-rendering="geometricPrecision" stroke-miterlimit="1.45" shape-rendering="geometricPrecision" transform="matrix(1,0,0,1,-158,144)" stroke-linecap="butt">
      <rect x="530.5" y="168.3765" clip-path="url(#clipPath2)" fill="none" width="123" rx="4" ry="4" height="30"/>
      <text x="546.3115" xml:space="preserve" y="188.0903" clip-path="url(#clipPath2)" font-family="sans-serif" stroke="none">Champ 2 : valeur</text>
    </g>
    <g fill="rgb(255,204,0)" text-rendering="geometricPrecision" shape-rendering="geometricPrecision" transform="matrix(1,0,0,1,-158,144)" stroke="rgb(255,204,0)">
      <rect x="530.5" y="209" clip-path="url(#clipPath2)" width="123" rx="4" ry="4" height="30" stroke="none"/>
    </g>
    <g text-rendering="geometricPrecision" stroke-miterlimit="1.45" shape-rendering="geometricPrecision" transform="matrix(1,0,0,1,-158,144)" stroke-linecap="butt">
      <rect x="530.5" y="209" clip-path="url(#clipPath2)" fill="none" width="123" rx="4" ry="4" height="30"/>
      <text x="546.3115" xml:space="preserve" y="228.7139" clip-path="url(#clipPath2)" font-family="sans-serif" stroke="none">Champ 5 : valeur</text>
    </g>
    <g fill="rgb(255,204,0)" text-rendering="geometricPrecision" shape-rendering="geometricPrecision" transform="matrix(1,0,0,1,-158,144)" stroke="rgb(255,204,0)">
      <rect x="388.8457" y="262.5" clip-path="url(#clipPath2)" width="123" rx="4" ry="4" height="30" stroke="none"/>
    </g>
    <g text-rendering="geometricPrecision" stroke-miterlimit="1.45" shape-rendering="geometricPrecision" transform="matrix(1,0,0,1,-158,144)" stroke-linecap="butt">
      <rect x="388.8457" y="262.5" clip-path="url(#clipPath2)" fill="none" width="123" rx="4" ry="4" height="30"/>
      <text x="404.6572" xml:space="preserve" y="282.2139" clip-path="url(#clipPath2)" font-family="sans-serif" stroke="none">Champ 6 : valeur</text>
    </g>
    <g fill="rgb(255,204,0)" text-rendering="geometricPrecision" shape-rendering="geometricPrecision" transform="matrix(1,0,0,1,-158,144)" stroke="rgb(255,204,0)">
      <rect x="530.5" y="301.7529" clip-path="url(#clipPath2)" width="123" rx="4" ry="4" height="30" stroke="none"/>
    </g>
    <g text-rendering="geometricPrecision" stroke-miterlimit="1.45" shape-rendering="geometricPrecision" transform="matrix(1,0,0,1,-158,144)" stroke-linecap="butt">
      <rect x="530.5" y="301.7529" clip-path="url(#clipPath2)" fill="none" width="123" rx="4" ry="4" height="30"/>
      <text x="546.3115" xml:space="preserve" y="321.4668" clip-path="url(#clipPath2)" font-family="sans-serif" stroke="none">Champ 7 : valeur</text>
    </g>
    <g fill="rgb(255,204,0)" text-rendering="geometricPrecision" shape-rendering="geometricPrecision" transform="matrix(1,0,0,1,-158,144)" stroke="rgb(255,204,0)">
      <rect x="173.5" y="205.3765" clip-path="url(#clipPath2)" width="130" rx="4" ry="4" height="30" stroke="none"/>
    </g>
    <g text-rendering="geometricPrecision" stroke-miterlimit="1.45" shape-rendering="geometricPrecision" transform="matrix(1,0,0,1,-158,144)" stroke-linecap="butt">
      <rect x="173.5" y="205.3765" clip-path="url(#clipPath2)" fill="none" width="130" rx="4" ry="4" height="30"/>
      <text x="224.4932" xml:space="preserve" y="225.0903" clip-path="url(#clipPath2)" font-family="sans-serif" stroke="none">Clé 2</text>
      <path fill="none" d="M450.3457 161.3716 L450.3457 183.3765 L522.4758 183.3765" clip-path="url(#clipPath2)"/>
      <path d="M530.4758 183.3765 L518.4758 178.3765 L521.4758 183.3765 L518.4758 188.3765 Z" clip-path="url(#clipPath2)" stroke="none"/>
      <path fill="none" d="M450.3457 161.3478 L450.3457 224 L522.4758 224" clip-path="url(#clipPath2)"/>
      <path d="M530.4758 224 L518.4758 219 L521.4758 224 L518.4758 229 Z" clip-path="url(#clipPath2)" stroke="none"/>
      <path fill="none" d="M450.3457 292.4882 L450.3457 316.7529 L522.4758 316.7529" clip-path="url(#clipPath2)"/>
      <path d="M530.4758 316.7529 L518.4758 311.7529 L521.4758 316.7529 L518.4758 321.7529 Z" clip-path="url(#clipPath2)" stroke="none"/>
      <path fill="none" d="M303.4747 220.3765 L375.8625 220.3765" clip-path="url(#clipPath2)"/>
      <path d="M383.8625 220.3765 L371.8625 215.3765 L374.8625 220.3765 L371.8625 225.3765 Z" clip-path="url(#clipPath2)" stroke="none"/>
    </g>
  </g>
</svg>
