<?xml version="1.0" encoding="UTF-8"?><svg xmlns="http://www.w3.org/2000/svg" xmlns:xlink="http://www.w3.org/1999/xlink" fill-opacity="1" color-rendering="auto" color-interpolation="auto" text-rendering="auto" stroke="black" stroke-linecap="square" width="404" stroke-miterlimit="10" shape-rendering="auto" stroke-opacity="1" fill="black" stroke-dasharray="none" font-weight="normal" stroke-width="1" height="296" font-family="'Dialog'" font-style="normal" stroke-linejoin="miter" font-size="12px" stroke-dashoffset="0" image-rendering="auto">
  <!--Generated by ySVG 2.5-->
  <defs id="genericDefs"/>
  <g>
    <defs id="defs1">
      <clipPath clipPathUnits="userSpaceOnUse" id="clipPath1">
        <path d="M0 0 L404 0 L404 296 L0 296 L0 0 Z"/>
      </clipPath>
      <clipPath clipPathUnits="userSpaceOnUse" id="clipPath2">
        <path d="M352 220 L756 220 L756 516 L352 516 L352 220 Z"/>
      </clipPath>
    </defs>
    <g fill="white" text-rendering="geometricPrecision" shape-rendering="geometricPrecision" transform="translate(-352,-220)" stroke="white">
      <rect x="352" width="404" height="296" y="220" clip-path="url(#clipPath2)" stroke="none"/>
    </g>
    <g fill="rgb(255,204,0)" text-rendering="geometricPrecision" shape-rendering="geometricPrecision" transform="matrix(1,0,0,1,-352,-220)" stroke="rgb(255,204,0)">
      <circle r="34" clip-path="url(#clipPath2)" cx="529" cy="269" stroke="none"/>
    </g>
    <g text-rendering="geometricPrecision" stroke-miterlimit="1.45" shape-rendering="geometricPrecision" transform="matrix(1,0,0,1,-352,-220)" stroke-linecap="butt">
      <circle fill="none" r="34" clip-path="url(#clipPath2)" cx="529" cy="269"/>
      <text x="506.3154" xml:space="preserve" y="273.7139" clip-path="url(#clipPath2)" font-family="sans-serif" stroke="none">Noeud 5</text>
    </g>
    <g fill="rgb(255,204,0)" text-rendering="geometricPrecision" shape-rendering="geometricPrecision" transform="matrix(1,0,0,1,-352,-220)" stroke="rgb(255,204,0)">
      <circle r="34" clip-path="url(#clipPath2)" cx="401" cy="405" stroke="none"/>
    </g>
    <g text-rendering="geometricPrecision" stroke-miterlimit="1.45" shape-rendering="geometricPrecision" transform="matrix(1,0,0,1,-352,-220)" stroke-linecap="butt">
      <circle fill="none" r="34" clip-path="url(#clipPath2)" cx="401" cy="405"/>
      <text x="378.3154" xml:space="preserve" y="409.7139" clip-path="url(#clipPath2)" font-family="sans-serif" stroke="none">Noeud 4</text>
    </g>
    <g fill="rgb(255,204,0)" text-rendering="geometricPrecision" shape-rendering="geometricPrecision" transform="matrix(1,0,0,1,-352,-220)" stroke="rgb(255,204,0)">
      <circle r="34" clip-path="url(#clipPath2)" cx="561" cy="467" stroke="none"/>
    </g>
    <g text-rendering="geometricPrecision" stroke-miterlimit="1.45" shape-rendering="geometricPrecision" transform="matrix(1,0,0,1,-352,-220)" stroke-linecap="butt">
      <circle fill="none" r="34" clip-path="url(#clipPath2)" cx="561" cy="467"/>
      <text x="538.3154" xml:space="preserve" y="471.7139" clip-path="url(#clipPath2)" font-family="sans-serif" stroke="none">Noeud 1</text>
    </g>
    <g fill="rgb(255,204,0)" text-rendering="geometricPrecision" shape-rendering="geometricPrecision" transform="matrix(1,0,0,1,-352,-220)" stroke="rgb(255,204,0)">
      <circle r="34" clip-path="url(#clipPath2)" cx="426" cy="281" stroke="none"/>
    </g>
    <g text-rendering="geometricPrecision" stroke-miterlimit="1.45" shape-rendering="geometricPrecision" transform="matrix(1,0,0,1,-352,-220)" stroke-linecap="butt">
      <circle fill="none" r="34" clip-path="url(#clipPath2)" cx="426" cy="281"/>
      <text x="403.3154" xml:space="preserve" y="285.7139" clip-path="url(#clipPath2)" font-family="sans-serif" stroke="none">Noeud 3</text>
    </g>
    <g fill="rgb(255,204,0)" text-rendering="geometricPrecision" shape-rendering="geometricPrecision" transform="matrix(1,0,0,1,-352,-220)" stroke="rgb(255,204,0)">
      <circle r="34" clip-path="url(#clipPath2)" cx="707" cy="412" stroke="none"/>
    </g>
    <g text-rendering="geometricPrecision" stroke-miterlimit="1.45" shape-rendering="geometricPrecision" transform="matrix(1,0,0,1,-352,-220)" stroke-linecap="butt">
      <circle fill="none" r="34" clip-path="url(#clipPath2)" cx="707" cy="412"/>
      <text x="684.3154" xml:space="preserve" y="416.7139" clip-path="url(#clipPath2)" font-family="sans-serif" stroke="none">Noeud 2</text>
      <path fill="none" d="M529.297 454.7151 L440.1625 420.1755" clip-path="url(#clipPath2)"/>
      <path d="M432.703 417.2849 L442.0857 426.283 L441.095 420.5368 L445.6989 416.9586 Z" clip-path="url(#clipPath2)" stroke="none"/>
      <path fill="none" d="M555.5754 433.4355 L535.7009 310.462" clip-path="url(#clipPath2)"/>
      <path d="M534.4246 302.5645 L531.4031 315.2085 L535.8605 311.4492 L541.2751 313.613 Z" clip-path="url(#clipPath2)" stroke="none"/>
      <path fill="none" d="M541.0286 439.4838 L450.6706 314.9906" clip-path="url(#clipPath2)"/>
      <path d="M445.9714 308.5162 L448.9737 321.1648 L451.258 315.7999 L457.0667 315.2908 Z" clip-path="url(#clipPath2)" stroke="none"/>
      <path fill="none" d="M459.7716 277.0655 L487.2822 273.8603" clip-path="url(#clipPath2)"/>
      <path d="M495.2284 272.9345 L482.7304 269.3568 L486.2889 273.976 L483.8877 279.2896 Z" clip-path="url(#clipPath2)" stroke="none"/>
      <path fill="none" d="M675.1827 423.986 L600.3036 452.1938" clip-path="url(#clipPath2)"/>
      <path d="M592.8173 455.014 L605.8095 455.4627 L601.2394 451.8413 L602.2842 446.1047 Z" clip-path="url(#clipPath2)" stroke="none"/>
      <path fill="none" d="M680.4941 390.7059 L561.7426 295.3044" clip-path="url(#clipPath2)"/>
      <path d="M555.5059 290.294 L561.7294 301.7076 L562.5222 295.9307 L567.9924 293.9117 Z" clip-path="url(#clipPath2)" stroke="none"/>
    </g>
  </g>
</svg>
